<?xml version="1.0" standalone="no"?>
<!DOCTYPE svg PUBLIC "-//W3C//DTD SVG 20010904//EN"
 "http://www.w3.org/TR/2001/REC-SVG-20010904/DTD/svg10.dtd">
<svg version="1.0" xmlns="http://www.w3.org/2000/svg"
 width="1000.000000pt" height="1000.000000pt" viewBox="0 0 1000.000000 1000.000000"
 preserveAspectRatio="xMidYMid meet">
<metadata>
Created by potrace 1.14, written by Peter Selinger 2001-2017
</metadata>
<g transform="translate(0.000000,1000.000000) scale(0.100000,-0.100000)"
fill="#000000" stroke="none">
<path d="M2075 7038 c-3 -7 -4 -915 -3 -2018 l3 -2005 469 0 470 0 18 85 c10
47 20 91 23 98 3 8 27 -3 71 -34 84 -57 208 -119 299 -151 218 -75 547 -82
789 -18 203 54 414 183 545 333 l53 61 71 -61 c199 -171 440 -280 757 -341
104 -20 145 -22 425 -22 239 1 339 5 435 18 167 24 335 62 450 103 52 19 98
34 102 34 4 0 8 -24 10 -52 l3 -53 425 0 425 0 0 415 0 415 -415 5 -415 5
-104 -32 c-401 -126 -949 -137 -1231 -26 -122 48 -220 134 -274 240 -9 18 -16
37 -16 42 0 8 284 12 903 13 l902 3 0 370 c-1 342 -2 377 -23 470 -30 141 -56
215 -112 330 -59 119 -113 193 -217 298 -175 176 -402 288 -696 344 -130 25
-552 25 -682 1 -140 -27 -261 -65 -371 -117 -125 -60 -205 -113 -293 -196
l-68 -64 -54 55 c-101 104 -239 191 -390 248 -334 124 -756 121 -1100 -8 -53
-20 -98 -36 -100 -36 -2 0 -3 275 -2 611 2 394 -1 618 -8 630 -9 18 -32 19
-540 19 -414 0 -531 -3 -534 -12z m4060 -1294 c183 -23 387 -99 531 -196 76
-51 196 -175 251 -260 76 -115 148 -302 169 -433 3 -22 8 -163 11 -312 l5
-273 -793 -1 c-437 -1 -798 -1 -804 0 -5 2 -37 -3 -72 -10 -99 -20 -145 -73
-145 -170 0 -159 189 -376 393 -453 35 -13 107 -33 160 -45 320 -69 608 -62
1019 23 41 9 78 16 83 16 4 0 6 -82 5 -182 l-3 -181 -70 -24 c-160 -54 -257
-74 -490 -98 -158 -17 -483 -19 -593 -5 -40 5 -94 12 -120 16 -115 14 -348 94
-462 157 -289 160 -473 403 -554 732 -52 213 -55 559 -6 786 19 91 76 251 118
334 72 144 217 316 328 390 104 69 260 137 384 167 160 38 458 48 655 22z
m-2423 -694 c75 -23 152 -85 193 -154 104 -179 107 -693 5 -898 -29 -58 -95
-125 -150 -153 -164 -83 -422 -47 -565 79 l-36 31 0 470 c1 259 1 482 1 497 0
21 12 34 55 63 135 89 334 116 497 65z"/>
<path d="M5732 5334 c-196 -35 -313 -117 -391 -271 -23 -45 -55 -173 -66 -261
-15 -118 42 -213 137 -227 24 -3 255 -5 513 -3 l471 3 42 33 c55 44 66 85 59
227 -6 142 -26 214 -84 298 -79 117 -155 165 -312 196 -118 24 -257 26 -369 5z
m301 -164 c136 -20 212 -74 265 -189 20 -44 27 -76 30 -148 l4 -93 -445 0
-445 0 5 48 c12 130 53 231 118 291 89 82 276 119 468 91z"/>
</g>
</svg>
